ffmpeg started on 2016-11-26 at 14:02:19
Report written to "Output/NVENCh264/results/ffmpeg/old_town_cross_2160p50ll4500k.log"
Command line:
Tools/ffmpeg/ffmpeg -benchmark -y -i Input/y4m/old_town_cross_2160p50.y4m -c:v h264_nvenc -preset ll -b:v 4500k -an Output/NVENCh264/encoded/old_town_cross_2160p50ll4500k.mkv
ffmpeg version N-82227-gdb23fde Copyright (c) 2000-2016 the FFmpeg developers
  built with gcc 5.4.0 (Ubuntu 5.4.0-6ubuntu1~16.04.2) 20160609
  configuration: --prefix=/home/jaroslav/ffmpeg_build --pkg-config-flags=--static --extra-cflags=-I/home/jaroslav/ffmpeg_build/include --extra-ldflags=-L/home/jaroslav/ffmpeg_build/lib --bindir=/home/jaroslav/bin --enable-gpl --enable-libass --enable-libfdk-aac --enable-libfreetype --enable-libmp3lame --enable-libopus --enable-libtheora --enable-libvorbis --enable-libvpx --enable-libx264 --enable-libx265 --enable-nvenc --enable-libmfx --enable-libxvid --enable-libgsm --enable-libopencore-amrnb --enable-version3 --enable-nonfree
  libavutil      55. 35.100 / 55. 35.100
  libavcodec     57. 66.101 / 57. 66.101
  libavformat    57. 57.100 / 57. 57.100
  libavdevice    57.  2.100 / 57.  2.100
  libavfilter     6. 66.100 /  6. 66.100
  libswscale      4.  3.100 /  4.  3.100
  libswresample   2.  4.100 /  2.  4.100
  libpostproc    54.  2.100 / 54.  2.100
Input #0, yuv4mpegpipe, from 'Input/y4m/old_town_cross_2160p50.y4m':
  Duration: 00:00:10.00, start: 0.000000, bitrate: 4976642 kb/s
    Stream #0:0: Video: rawvideo (I420 / 0x30323449), yuv420p(progressive), 3840x2160, SAR 1:1 DAR 16:9, 50 fps, 50 tbr, 50 tbn, 50 tbc
[h264_nvenc @ 0x455b120] The variable bitrate rate-control requires the 'qmin' and/or 'qmax' option set.
Output #0, matroska, to 'Output/NVENCh264/encoded/old_town_cross_2160p50ll4500k.mkv':
  Metadata:
    encoder         : Lavf57.57.100
    Stream #0:0: Video: h264 (h264_nvenc) (Main) (H264 / 0x34363248), yuv420p, 3840x2160 [SAR 1:1 DAR 16:9], q=-1--1, 4500 kb/s, 50 fps, 1k tbn, 50 tbc
    Metadata:
      encoder         : Lavc57.66.101 h264_nvenc
    Side data:
      cpb: bitrate max/min/avg: 0/0/4500000 buffer size: 9000000 vbv_delay: -1
Stream mapping:
  Stream #0:0 -> #0:0 (rawvideo (native) -> h264 (h264_nvenc))
Press [q] to stop, [?] for help
frame=    7 fps=0.0 q=0.0 size=       0kB time=00:00:00.00 bitrate=N/A speed=   0x    frame=   15 fps= 15 q=0.0 size=       0kB time=00:00:00.00 bitrate=N/A speed=   0x    frame=   33 fps= 21 q=40.0 size=       1kB time=00:00:00.04 bitrate= 145.8kbits/s speed=0.0266x    frame=   51 fps= 25 q=39.0 size=       1kB time=00:00:00.40 bitrate=  14.9kbits/s speed=0.196x    frame=   69 fps= 27 q=36.0 size=       1kB time=00:00:00.76 bitrate=   7.9kbits/s speed=0.297x    frame=   87 fps= 28 q=37.0 size=       1kB time=00:00:01.12 bitrate=   5.3kbits/s speed=0.364x    frame=   93 fps= 24 q=39.0 size=       1kB time=00:00:01.24 bitrate=   4.8kbits/s speed=0.315x    frame=   99 fps= 22 q=36.0 size=       1kB time=00:00:01.36 bitrate=   4.4kbits/s speed=0.305x    frame=  117 fps= 24 q=38.0 size=       1kB time=00:00:01.72 bitrate=   3.5kbits/s speed=0.346x    frame=  135 fps= 25 q=38.0 size=       1kB time=00:00:02.08 bitrate=   2.9kbits/s speed=0.379x    frame=  153 fps= 26 q=34.0 size=       1kB time=00:00:02.44 bitrate=   2.4kbits/s speed=0.407x    frame=  171 fps= 26 q=35.0 size=       1kB time=00:00:02.80 bitrate=   2.1kbits/s speed=0.43x    frame=  189 fps= 27 q=34.0 size=       1kB time=00:00:03.16 bitrate=   1.9kbits/s speed=0.45x    frame=  207 fps= 27 q=35.0 size=       1kB time=00:00:03.52 bitrate=   1.7kbits/s speed=0.467x    frame=  225 fps= 28 q=37.0 size=       1kB time=00:00:03.88 bitrate=   1.5kbits/s speed=0.482x    frame=  234 fps= 27 q=39.0 size=       1kB time=00:00:04.06 bitrate=   1.5kbits/s speed=0.47x    frame=  240 fps= 26 q=36.0 size=       1kB time=00:00:04.18 bitrate=   1.4kbits/s speed=0.457x    frame=  247 fps= 26 q=35.0 size=       1kB time=00:00:04.32 bitrate=   1.4kbits/s speed=0.446x    frame=  265 fps= 26 q=35.0 size=       1kB time=00:00:04.68 bitrate=   1.3kbits/s speed=0.459x    frame=  283 fps= 26 q=35.0 size=    2640kB time=00:00:05.04 bitrate=4289.5kbits/s speed=0.47x    frame=  301 fps= 27 q=41.0 size=    2640kB time=00:00:05.40 bitrate=4003.6kbits/s speed=0.481x    frame=  319 fps= 27 q=37.0 size=    2640kB time=00:00:05.76 bitrate=3753.4kbits/s speed=0.491x    frame=  325 fps= 27 q=39.0 size=    2640kB time=00:00:05.88 bitrate=3676.8kbits/s speed=0.48x    frame=  331 fps= 25 q=39.0 size=    2640kB time=00:00:06.00 bitrate=3603.3kbits/s speed=0.458x    frame=  343 fps= 25 q=35.0 size=    2640kB time=00:00:06.24 bitrate=3464.7kbits/s speed=0.454x    frame=  353 fps= 25 q=35.0 size=    2640kB time=00:00:06.44 bitrate=3357.2kbits/s speed=0.451x    frame=  371 fps= 25 q=34.0 size=    2640kB time=00:00:06.80 bitrate=3179.5kbits/s speed=0.46x    frame=  377 fps= 25 q=35.0 size=    2640kB time=00:00:06.92 bitrate=3124.3kbits/s speed=0.452x    frame=  384 fps= 24 q=34.0 size=    2640kB time=00:00:07.06 bitrate=3062.4kbits/s speed=0.446x    frame=  397 fps= 24 q=35.0 size=    2640kB time=00:00:07.32 bitrate=2953.6kbits/s speed=0.442x    frame=  404 fps= 23 q=35.0 size=    2640kB time=00:00:07.46 bitrate=2898.2kbits/s speed=0.428x    frame=  409 fps= 22 q=35.0 size=    2640kB time=00:00:07.56 bitrate=2859.9kbits/s speed=0.414x    frame=  411 fps= 22 q=35.0 size=    2640kB time=00:00:07.60 bitrate=2844.8kbits/s speed=0.405x    frame=  416 fps= 21 q=35.0 size=    2640kB time=00:00:07.70 bitrate=2807.9kbits/s speed=0.394x    frame=  422 fps= 21 q=35.0 size=    2640kB time=00:00:07.82 bitrate=2764.8kbits/s speed=0.39x    frame=  425 fps= 20 q=35.0 size=    2640kB time=00:00:07.88 bitrate=2743.7kbits/s speed=0.378x    frame=  427 fps= 20 q=35.0 size=    2640kB time=00:00:07.92 bitrate=2729.9kbits/s speed=0.367x    frame=  433 fps= 20 q=35.0 size=    2640kB time=00:00:08.04 bitrate=2689.2kbits/s speed=0.364x    frame=  438 fps= 19 q=35.0 size=    2640kB time=00:00:08.14 bitrate=2656.1kbits/s speed=0.36x    frame=  444 fps= 19 q=35.0 size=    2640kB time=00:00:08.26 bitrate=2617.5kbits/s speed=0.357x    frame=  449 fps= 19 q=35.0 size=    2640kB time=00:00:08.36 bitrate=2586.2kbits/s speed=0.349x    frame=  453 fps= 18 q=35.0 size=    2640kB time=00:00:08.44 bitrate=2561.7kbits/s speed=0.343x    frame=  456 fps= 18 q=35.0 size=    2640kB time=00:00:08.50 bitrate=2543.6kbits/s speed=0.335x    frame=  461 fps= 18 q=35.0 size=    2640kB time=00:00:08.60 bitrate=2514.1kbits/s speed=0.332x    frame=  462 fps= 17 q=35.0 size=    2640kB time=00:00:08.62 bitrate=2508.2kbits/s speed=0.324x    frame=  471 fps= 17 q=35.0 size=    2640kB time=00:00:08.80 bitrate=2456.9kbits/s speed=0.323x    frame=  489 fps= 18 q=36.0 size=    2640kB time=00:00:09.16 bitrate=2360.4kbits/s speed=0.33x    frame=  500 fps= 18 q=36.0 Lsize=    5388kB time=00:00:09.98 bitrate=4422.3kbits/s speed=0.355x    
video:5384kB audio:0kB subtitle:0kB other streams:0kB global headers:0kB muxing overhead: 0.079486%
bench: utime=1.240s
bench: maxrss=1409104kB
